<svg xmlns="http://www.w3.org/2000/svg" width="256" height="256"><path fill="#1976D2" fill-opacity=".047" fill-rule="evenodd" d="M0 128.004v128.004l128.25-.254 128.25-.254.254-127.75L257.008 0H0zm.485.496c0 70.4.119 99.053.265 63.672s.146-92.98 0-128S.485 58.1.485 128.5"/><path fill="#1976D2" fill-opacity=".136" fill-rule="evenodd" d="M108 1.496C76.531 7.829 52.561 31.618 45.452 63.572c-2.334 10.492-1.594 28.999 1.556 38.928 7.608 23.974 24.228 42.429 46.736 51.894 19.352 8.139 44.83 7.609 63.934-1.33 14.415-6.746 29.654-20.751 36.322-33.384 3.939-7.463 3.54-10.18-1.498-10.18-2.351 0-3.385 1.001-6.708 6.5-2.161 3.575-6.036 8.655-8.612 11.289l-4.682 4.79-.5-31.147-.5-31.147-11.729-6.142-11.728-6.143-.022-12.541L148 32.417l-11.401-6.708c-6.27-3.69-11.941-6.709-12.602-6.709s-7.005 3.419-14.099 7.598L97 34.196l-.011 6.652-.012 6.652-9.486 5-9.486 5-.038 38.5-.037 38.5-5.881-6.187c-6.942-7.304-12.341-16.547-15.857-27.146-2.221-6.695-2.543-9.379-2.541-21.167.002-11.896.315-14.45 2.64-21.5 7.817-23.707 27.549-41.768 51.437-47.083 11.416-2.54 29.176-1.607 40.173 2.109 25.354 8.568 44.921 32.855 46.832 58.13.31 4.102.158 7.344-.345 7.344-.496 0-2.455-.446-4.354-.99-1.899-.545-3.814-.63-4.254-.19s1.956 5.634 5.326 11.541c4.343 7.615 6.601 10.652 7.76 10.435 1.843-.345 15.088-17.56 15.116-19.647.013-.988-1.184-1.255-4.457-.994l-4.476.356-.513-4.506c-1.929-16.919-5.353-27.404-12.547-38.425-15.201-23.286-40.4-36.767-68.197-36.486-5.111.052-12.217.683-15.792 1.402m21.818 40.938c-.329 2.82.009 3.622 1.89 4.479 2.174.991 2.292.845 2.292-2.827 0-3.376-1.168-5.086-3.472-5.086-.17 0-.49 1.546-.71 3.434M137 45.965c0 2.219.188 4.035.418 4.035s1.13.273 2 .607c2.566.984 2.17-6.222-.418-7.607-1.846-.988-2-.76-2 2.965m-7 12c0 2.219.188 4.035.418 4.035s1.13.273 2 .607c2.566.984 2.17-6.222-.418-7.607-1.846-.988-2-.76-2 2.965m7 3c0 2.219.188 4.035.418 4.035s1.13.273 2 .607c2.566.984 2.17-6.222-.418-7.607-1.846-.988-2-.76-2 2.965m-30 4.596c0 2.976.463 3.605 3.622 4.926 4.642 1.939 4.38 2.043 4.368-1.737-.009-2.84-.514-3.461-4-4.926L107 62.149zM130 74c0 3.333.333 4 2 4 1.607 0 2-.667 2-3.393 0-2.172-.569-3.612-1.582-4-2.397-.92-2.418-.891-2.418 3.393m7 2.427c0 1.965.188 3.573.418 3.573s1.161.285 2.069.633c1.387.533 1.599.017 1.331-3.241-.225-2.739-.831-3.973-2.068-4.207-1.402-.266-1.75.379-1.75 3.242m-30 3.14c0 2.969.464 3.6 3.622 4.92 4.647 1.941 4.378 2.054 4.378-1.835 0-2.978-.443-3.522-4-4.92l-4-1.571zm47.175-.913c.205 1.783.999 2.957 2.15 3.175 1.474.28 1.762-.198 1.5-2.483-.205-1.783-.999-2.957-2.15-3.175-1.474-.28-1.762.198-1.5 2.483m7 3c.205 1.783.999 2.957 2.15 3.175 1.474.28 1.762-.198 1.5-2.483-.205-1.783-.999-2.957-2.15-3.175-1.474-.28-1.762.198-1.5 2.483m-30.99 8.002c.441 5.354 3.357 5.917 3.211.62-.075-2.713-.586-3.871-1.816-4.112-1.416-.278-1.657.324-1.395 3.492m7.005 2.086c.217 2.615.837 3.841 2.06 4.073 1.394.264 1.75-.374 1.75-3.135 0-2.238-.56-3.681-1.582-4.073-2.474-.95-2.557-.833-2.228 3.135M154 91c0 1.65.188 3 .418 3s1.13.273 2 .607c1.226.47 1.582-.068 1.582-2.393 0-1.813-.626-3.24-1.582-3.607-2.361-.906-2.418-.85-2.418 2.393m-47 3.051c0 2.536.585 3.296 3.468 4.5 4.593 1.919 4.532 1.944 4.532-1.85 0-2.829-.473-3.47-3.321-4.5-4.561-1.65-4.679-1.603-4.679 1.85m54-.586c0 1.441.83 2.909 2 3.535 1.788.957 2 .76 2-1.858 0-1.747-.638-3.173-1.582-3.535-2.331-.895-2.418-.828-2.418 1.858M130 105c0 3.382.321 4 2.075 4 1.737 0 2.026-.53 1.772-3.25-.285-3.05-1.364-4.699-3.097-4.735-.412-.008-.75 1.785-.75 3.985m24-1.535c0 1.441.83 2.909 2 3.535 1.788.957 2 .76 2-1.858 0-1.747-.638-3.173-1.582-3.535-2.331-.895-2.418-.828-2.418 1.858m-17 3.629c0 3.239.341 3.906 2 3.906 1.606 0 2-.667 2-3.383 0-2.543-.497-3.514-2-3.907-1.748-.457-2-.03-2 3.384m24.187-.844c.616 4.43 3.813 5.058 3.813.75 0-2.364-.437-3-2.063-3-1.565 0-1.987.543-1.75 2.25M107 108.326c0 2.683.484 3.676 2 4.107l4 1.134c1.724.489 2 .09 2-2.891 0-2.82-.445-3.571-2.407-4.063-1.324-.333-3.124-.88-4-1.216-1.272-.488-1.593.101-1.593 2.929m47 7.651c0 1.949.603 2.947 2 3.313 1.647.43 2 .03 2-2.267 0-1.949-.603-2.947-2-3.313-1.647-.43-2-.03-2 2.267m8 2.416c0 1.316.675 2.652 1.5 2.969 1.126.432 1.5-.165 1.5-2.393 0-1.972-.504-2.969-1.5-2.969-.915 0-1.5.933-1.5 2.393m-55 4.277c0 3.424.277 3.676 5.25 4.766 2.568.562 2.75.383 2.75-2.71 0-3.02-.353-3.407-4-4.38l-4-1.068zm47 5.713c0 1.543.706 2.568 2 2.907 1.661.434 2 .03 2-2.384 0-2.239-.459-2.906-2-2.906-1.441 0-2 .667-2 2.383m8 1.648c0 1.972.504 2.969 1.5 2.969.915 0 1.5-.933 1.5-2.393 0-1.316-.675-2.652-1.5-2.969-1.126-.432-1.5.165-1.5 2.393M49.174 177.314c-4.06 4.322-2.39 7.952 5.076 11.035 2.063.852 3.75 1.992 3.75 2.533 0 1.577-3.748 2.323-5.896 1.173-2.756-1.474-3.787-1.323-4.551.669-1.62 4.219 9.604 6.119 13.447 2.276 3.969-3.969 1.894-8.747-4.815-11.085-1.752-.611-3.185-1.799-3.185-2.641 0-1.218.794-1.403 3.895-.907 3.128.5 4.025.285 4.554-1.096 1.676-4.367-8.488-5.988-12.275-1.957M66 186v11h5v-22h-5zm10.455-8.545c-4.051 4.05-2.639 7.68 4.115 10.575 2.437 1.044 4.43 2.379 4.43 2.966 0 1.777-2.969 2.339-5.726 1.083-2.147-.978-2.873-.904-4.186.43-1.452 1.475-1.422 1.737.353 3.052 2.567 1.902 9.547 1.836 12.336-.118 2.602-1.822 2.994-6.529.732-8.791-.82-.82-3.07-2.012-5-2.649-2.005-.662-3.509-1.823-3.509-2.708 0-1.251.779-1.426 4.025-.907 3.219.515 4.153.311 4.663-1.017 1.703-4.439-8.165-5.985-12.233-1.916m14.925-1.003c-.826 2.153.424 3.548 3.179 3.548 2.397 0 2.441.155 2.441 8.5 0 8.4.029 8.5 2.5 8.5s2.5-.1 2.5-8.5V180h3c2.533 0 3-.389 3-2.5 0-2.459-.131-2.5-8.031-2.5-6.099 0-8.166.349-8.589 1.452M110 186v11h7.5c7.333 0 7.5-.056 7.5-2.5 0-2.296-.367-2.5-4.5-2.5-3.249 0-4.5-.4-4.5-1.44 0-.941 1.297-1.547 3.75-1.75 3.012-.249 3.813-.753 4.07-2.56.286-2.017-.102-2.25-3.75-2.25-3.403 0-4.07-.328-4.07-2 0-1.704.667-2 4.5-2 4.133 0 4.5-.204 4.5-2.5 0-2.444-.167-2.5-7.5-2.5H110zm18.429-9.675c-.28.729-.378 5.566-.219 10.75l.29 9.425 2.75.316c2.716.313 2.751.245 2.802-5.5l.051-5.816 1.555 3.75c2.207 5.319 5.254 5.13 8.083-.5l2.135-4.25.062 6.25c.059 5.983.169 6.25 2.562 6.25h2.5v-22h-2.792c-2.404 0-3.182.796-5.61 5.747l-2.818 5.746-2.906-5.746c-2.378-4.703-3.363-5.747-5.421-5.747-1.384 0-2.745.596-3.024 1.325m31.675.925c-.466 1.238-1.99 5.4-3.387 9.25s-2.853 7.787-3.236 8.75c-.568 1.432-.151 1.75 2.295 1.75 2.15 0 3.138-.562 3.514-2 .412-1.577 1.364-2 4.5-2s4.087.423 4.5 2c.353 1.351 1.364 2 3.116 2 1.427 0 2.594-.261 2.594-.58 0-.997-5.917-17.396-7.021-19.459-1.48-2.766-5.794-2.585-6.875.289M184 186v11h6.1c5.604 0 6.377-.277 9.5-3.4 2.698-2.698 3.4-4.201 3.4-7.277 0-7.106-5.388-11.323-14.468-11.323H184zm22 .044v11.044l7.25-.294c6.485-.263 7.25-.505 7.25-2.294 0-1.677-.768-2.049-4.75-2.305-3.335-.214-4.75-.735-4.75-1.75 0-1.019 1.179-1.445 4-1.445 3.6 0 4-.25 4-2.5s-.4-2.5-4-2.5c-3.333 0-4-.333-4-2 0-1.704.667-2 4.5-2 4.133 0 4.5-.204 4.5-2.5 0-2.429-.2-2.5-7-2.5h-7zM189 186c0 5.905.044 6 2.8 6 3.785 0 5.2-1.678 5.2-6.165 0-3.99-1.876-5.835-5.934-5.835-1.858 0-2.066.603-2.066 6m-26.311-.917c-.71 2.713-.404 3.219 1.663 2.755 1.275-.286 1.311-.705.227-2.711l-1.281-2.373zm-12.213 15.944c-2.352 2.599-.547 5.123 2.364 3.305 1.227-.767 2.355-.802 3.586-.114 1.377.771 2.281.519 3.879-1.079 2.6-2.6 1.922-3.306-3.618-3.768-3.43-.285-4.78.074-6.211 1.656m-71.149 4.669c-1.195.232-3.322 1.572-4.726 2.976-7.502 7.502-1.142 20.651 9.178 18.976 5.177-.84 7.221-3.19 7.221-8.303V215h-4.5c-4.187 0-4.5.182-4.5 2.617 0 2.149.368 2.52 2.058 2.078 1.539-.402 1.978-.116 1.74 1.133-.443 2.327-4.574 2.685-6.88.597-2.31-2.09-2.555-7.652-.415-9.428 1.972-1.636 6.507-1.598 7.535.064.667 1.079 1.087 1.08 2.386.002.867-.719 1.576-1.877 1.576-2.572 0-1.232-5.962-4.626-7.651-4.355-.467.075-1.827.327-3.022.56m38.027.022c-3.226.592-5.549 3.707-5.179 6.944.258 2.256 1.299 3.321 5.075 5.194 5.424 2.69 6.286 5.144 1.809 5.144-1.618 0-3.219-.45-3.559-1-.929-1.503-1.884-1.216-3.254.977-1.089 1.745-.888 2.157 1.71 3.5 4.394 2.272 8.734 1.923 11.589-.932 1.35-1.35 2.455-3.296 2.455-4.325 0-2.303-3.418-5.469-7.75-7.179-1.787-.706-3.25-1.693-3.25-2.194 0-1.594 3.044-2.148 5.545-1.009 2.022.922 2.58.797 3.415-.763.705-1.317.637-2.149-.231-2.832-1.62-1.275-5.696-2.017-8.375-1.525m54.961.734c-9.277 4.069-7.578 19.282 2.362 21.147 6.399 1.201 13.309-4.185 13.319-10.381.006-3.389-2.568-8.921-4.661-10.019-3.531-1.852-7.837-2.144-11.02-.747M94.216 216.75l.284 10.75 7.123.291c6.392.262 7.175.088 7.641-1.692.708-2.707.085-3.099-4.931-3.099-3.666 0-4.333-.308-4.333-2 0-1.667.667-2 4-2 3.6 0 4-.25 4-2.5s-.4-2.5-4-2.5c-2.889 0-4-.417-4-1.5 0-1.111 1.167-1.5 4.5-1.5 4.133 0 4.5-.204 4.5-2.5 0-2.445-.164-2.5-7.534-2.5h-7.534zm34.964-8.5c.229 1.611 1.101 2.34 3.07 2.566l2.75.317v8.433c0 8.33.031 8.434 2.5 8.434s2.5-.104 2.5-8.434v-8.433l2.75-.317c1.969-.226 2.841-.955 3.07-2.566.31-2.184.067-2.25-8.32-2.25s-8.63.066-8.32 2.25m21.998.447c-3.262 8.245-6.178 16.706-6.178 17.922 0 .804 1.037 1.381 2.481 1.381 1.739 0 2.65-.673 3.045-2.25.458-1.827 1.26-2.25 4.269-2.25 2.796 0 4.02.552 4.987 2.25 1.177 2.067 4.133 3.001 5.421 1.714.295-.295-1.148-5.132-3.207-10.75-3.524-9.617-3.917-10.232-6.726-10.517-2.471-.25-3.174.18-4.092 2.5m23.045 2.86c-2.975 2.083-3.163 8.87-.289 10.408 1.064.569 2.607 1.035 3.429 1.035 4.621 0 6.441-8.623 2.414-11.443-1.222-.856-2.472-1.557-2.777-1.557s-1.555.701-2.777 1.557m-20.195 3.869c-1.354 3.561-1.35 3.574.991 3.574 1.696 0 1.914-.44 1.359-2.75-.915-3.818-1.177-3.909-2.35-.824m32.143 17.671c-.72 1.154-1.095 2.312-.833 2.574.719.719 6.662-2.578 6.662-3.697 0-1.843-4.52-.972-5.829 1.123M15 245.86V256h5.577c4.831 0 5.968-.391 8.5-2.923 3.132-3.132 3.78-7.101 1.852-11.334-1.526-3.348-4.388-4.832-10.551-5.468L15 235.72zm19.709-9.236c-.39.39-.709 4.909-.709 10.043V256h7c6.333 0 7-.19 7-2 0-1.704-.667-2-4.5-2-3.333 0-4.5-.389-4.5-1.5 0-1.048 1.056-1.5 3.5-1.5 3.067 0 3.5-.31 3.5-2.5s-.433-2.5-3.5-2.5c-5.342 0-4.684-2.799.75-3.193 3.481-.251 4.25-.669 4.25-2.307 0-1.747-.764-2.037-6.041-2.292-3.323-.161-6.36.026-6.75.416m26.648.368c-5.658 2.283-7.376 12.08-2.902 16.553 3.225 3.226 10.325 3.46 13.066.431 2.649-2.926.666-4.71-3.375-3.037-4.251 1.762-7.146.03-7.146-4.274 0-1.796.54-3.805 1.2-4.465 1.525-1.525 5.052-1.548 6.558-.042.876.876 1.531.847 2.7-.123 2.22-1.842 1.925-2.786-1.408-4.509-3.271-1.692-5.487-1.828-8.693-.534m18.643.281c-1.375.683-3.323 2.924-4.33 4.979-4.946 10.101 7.433 18.798 15.407 10.825 4.648-4.648 3.506-12.69-2.222-15.652-3.366-1.741-5.584-1.779-8.855-.152m16.701-.641c-.385.386-.701 4.901-.701 10.035 0 9.235.026 9.333 2.448 9.333 2.248 0 2.472-.429 2.75-5.25l.302-5.25 3.418 5.25c2.535 3.893 4.031 5.25 5.787 5.25 2.348 0 2.365-.081 2.081-9.75-.264-8.988-.442-9.75-2.286-9.75-1.712 0-2.044.768-2.305 5.341l-.306 5.342-3.726-5.334c-3.555-5.088-5.93-6.749-7.462-5.217m20.049-.062c-.412.42-.75 4.963-.75 10.097V256h5.05c2.777 0 6.339-.667 7.916-1.483 5.612-2.902 6.07-11.908.805-15.839-2.696-2.013-11.685-3.468-13.021-2.108m24.75.375c-4.875 1.996-7.217 7.351-5.496 12.568 1.488 4.508 4.426 6.487 9.63 6.487 3.449 0 4.645-.543 6.777-3.077 6.819-8.104-1.256-19.929-10.911-15.978m15.878.512c-.255.666-.332 4.998-.171 9.627.274 7.863.441 8.437 2.543 8.736 2.087.296 2.253-.066 2.294-5l.044-5.32 1.98 3.75c2.465 4.669 5.023 4.847 7.187.5l1.617-3.25.064 4.75c.059 4.383.257 4.75 2.564 4.75 2.491 0 2.5-.033 2.5-9.5V237h-2.917c-2.537 0-3.142.588-4.636 4.5-.945 2.475-2.018 4.5-2.384 4.5-.365 0-1.62-1.966-2.787-4.369-1.532-3.153-2.861-4.51-4.778-4.876-1.579-.302-2.844-.017-3.12.702m26.18-.682c-.307.307-.558 4.758-.558 9.892 0 9.289.012 9.333 2.5 9.333s2.5-.041 2.5-9.383c0-8.449-.193-9.434-1.942-9.892-1.068-.279-2.193-.256-2.5.05m9.867.559c-.281.733-.379 5.121-.218 9.75.274 7.863.441 8.437 2.543 8.736 2.111.299 2.251-.04 2.261-5.5l.012-5.82 3.738 5.737c2.71 4.157 4.358 5.74 5.989 5.75 2.185.013 2.25-.277 2.25-10.057 0-9.87-.044-10.063-2.25-9.75-2.007.286-2.25.887-2.25 5.572 0 2.888-.091 5.251-.202 5.25s-1.656-2.139-3.434-4.752-3.712-5.081-4.298-5.485c-1.673-1.153-3.58-.891-4.141.569m21.276-.702c-.385.386-.701 4.901-.701 10.035 0 9.324.002 9.333 2.536 9.333h2.536l-.286-9.738c-.23-7.847-.587-9.796-1.835-10.035-.852-.163-1.864.019-2.25.405m12.656.36c-3.33 1.343-5.357 5.042-5.357 9.776 0 6.03 3.249 9.232 9.366 9.232 3.748 0 4.867-.489 7.045-3.077 4.408-5.239 3.286-12.477-2.391-15.413-3.243-1.676-5.464-1.809-8.663-.518M20 246.5c0 4.679.275 5.5 1.845 5.5 2.257 0 5.155-3.033 5.155-5.394 0-3.137-1.998-5.606-4.535-5.606-2.321 0-2.465.321-2.465 5.5m61.096-4.116c-1.696 2.044-.975 7.677 1.154 9.01 3.547 2.221 7.762-2.604 6.193-7.091-1.129-3.228-5.346-4.33-7.347-1.919M121 246.5c0 4.64.283 5.5 1.809 5.5 2.93 0 5.441-2.457 5.441-5.325 0-3.468-1.895-5.675-4.872-5.675-2.216 0-2.378.376-2.378 5.5m20.443-3.053c-1.379 2.105-1.416 2.838-.264 5.25 2.487 5.203 8.821 3.359 8.821-2.568 0-5.352-5.648-7.122-8.557-2.682M228.2 242.2c-.66.66-1.2 2.595-1.2 4.3s.54 3.64 1.2 4.3c2.946 2.946 7.8.039 7.8-4.671 0-3.265-1.636-5.129-4.5-5.129-1.155 0-2.64.54-3.3 1.2"/><path fill="#1976D2" fill-opacity=".462" fill-rule="evenodd" d="M113.193 1.018C77.341 5.982 50.019 33.409 44.911 69.561c-2.206 15.61.875 32.375 8.767 47.713 3.801 7.384 6.552 11.042 13.785 18.326 17.286 17.407 37.704 25.451 61.037 24.046 12.558-.756 19.615-2.611 31-8.146 14.812-7.202 27.154-18.87 34.459-32.575 2.972-5.576 3-5.754 1.224-7.948-2.504-3.092-5.102-1.554-8.978 5.314C183.12 121.756 173.504 133 171.914 133c-.49 0-1.004-14.169-1.15-31.718l-.264-31.717-11.143-5.533-11.144-5.532-.356-12.97-.357-12.97-11.433-6.78C129.78 22.051 124.368 19 124.042 19s-6.431 3.487-13.567 7.75L97.5 34.5l-.5 6.838-.5 6.839-9 4.661-9 4.662-.262 38.747-.261 38.748-3.089-2.748c-4.849-4.314-11.855-14.103-15.492-21.645-5.075-10.527-6.715-19.524-6.184-33.932.735-19.938 6.084-31.952 20.788-46.688 13.102-13.131 27.326-19.52 46.02-20.67 21.364-1.315 40.496 6.001 55.48 21.215 11.716 11.895 18.461 26.16 20.065 42.432.637 6.472.534 7.293-.849 6.762-3.22-1.236-8.716-1.914-8.716-1.076 0 1.897 11.595 20.855 12.756 20.855 1.554 0 15.377-18.476 14.673-19.615-.284-.459-2.453-.569-4.819-.245l-4.304.59-.559-7.365C201.68 45.626 185.05 21.042 160.5 8.934c-13.925-6.868-32.468-9.971-47.307-7.916M129 41.965c0 2.896.521 4.244 1.934 5 2.888 1.545 3.066 1.375 3.066-2.93 0-2.896-.521-4.244-1.934-5-2.888-1.545-3.066-1.375-3.066 2.93m8 4c0 2.941.516 4.241 2 5.035 1.86.995 2 .76 2-3.358 0-3.115-.469-4.608-1.582-5.035-2.396-.92-2.418-.89-2.418 3.358m-8 11.567c0 3.785.371 4.671 2.25 5.371 2.078.775 2.274.527 2.568-3.246.234-3.003-.148-4.425-1.441-5.371-2.834-2.072-3.377-1.55-3.377 3.246m8 3.433c0 2.941.516 4.241 2 5.035 1.86.995 2 .76 2-3.358 0-3.115-.469-4.608-1.582-5.035-2.396-.92-2.418-.89-2.418 3.358m-30.81 4.695c.275 3.251.786 3.862 4.56 5.459l4.25 1.799v-3.946c0-3.589-.327-4.082-3.622-5.459-5.117-2.138-5.537-1.964-5.188 2.147M129 73.5c0 2.475.413 4.5.918 4.5s1.63.273 2.5.607c2.544.976 2.208-7.202-.352-8.572C129.149 68.474 129 68.643 129 73.5m8 2.977c0 3.449.392 4.392 2 4.813 1.77.463 2 .03 2-3.767 0-3.449-.392-4.392-2-4.813-1.77-.463-2-.03-2 3.767m17 2.023c0 1.925.413 3.5.918 3.5s1.63.273 2.5.607c2.474.949 2.142-5.237-.352-6.572C154.209 74.506 154 74.674 154 78.5m-48 .987c0 3.061.441 3.671 3.622 5 5.03 2.101 5.378 1.974 5.378-1.974 0-3.061-.441-3.671-3.622-5-5.03-2.101-5.378-1.974-5.378 1.974m55 1.896c0 2.543.497 3.514 2 3.907 1.702.445 2 .03 2-2.777 0-2.086-.582-3.522-1.582-3.906-2.377-.912-2.418-.865-2.418 2.776m-31.814 7.627c.247 3.363.793 4.448 2.564 5.099 2.121.779 2.25.57 2.25-3.641 0-2.458-.413-4.468-.918-4.468s-1.659-.284-2.564-.632c-1.396-.535-1.598.018-1.332 3.642M137 91.477c0 3.449.392 4.392 2 4.813 1.77.463 2 .03 2-3.767 0-3.449-.392-4.392-2-4.813-1.77-.463-2-.03-2 3.767m17.187-.335c.217 2.181 1.001 3.395 2.563 3.968 2.051.752 2.25.528 2.25-2.535 0-2.142-.574-3.581-1.582-3.968-2.917-1.119-3.547-.625-3.231 2.535M106 93.774c0 3.672.235 3.98 3.866 5.068 5.239 1.569 5.134 1.618 5.134-2.367 0-3.612-.344-3.913-6.75-5.909-2.069-.644-2.25-.387-2.25 3.208m55-.309c0 1.944.188 3.535.418 3.535s1.13.273 2 .607c2.524.969 2.131-5.243-.418-6.607-1.825-.977-2-.76-2 2.465m-32 11.174c0 2.398.413 4.361.918 4.361s1.63.273 2.5.607c1.298.498 1.582-.2 1.582-3.883 0-3.996-.275-4.544-2.5-4.969-2.358-.45-2.5-.229-2.5 3.884m25-1.214c0 2.142.574 3.581 1.582 3.968 2.917 1.119 3.547.625 3.231-2.535-.217-2.181-1.001-3.395-2.563-3.968-2.051-.752-2.25-.528-2.25 2.535m-17 3.502c0 2.24.188 4.073.418 4.073s1.159.284 2.064.632c1.399.536 1.599-.025 1.332-3.742-.231-3.216-.777-4.461-2.064-4.705-1.435-.272-1.75.403-1.75 3.742m24.187-.685c.206 2.135.91 3.355 2.063 3.573 2.335.443 2.491-5.317.168-6.208-2.458-.943-2.565-.816-2.231 2.635M106 107.839c0 3.815.179 4.034 4.5 5.506l4.5 1.534v-3.964c0-4.108-.22-4.315-6.75-6.349-2.073-.646-2.25-.389-2.25 3.273m48.187 8.411c.24 2.491.838 3.325 2.563 3.57 1.899.269 2.25-.143 2.25-2.643 0-2.742-1.424-4.177-4.145-4.177-.54 0-.841 1.463-.668 3.25m6.993 1.905c.218 2.269.899 3.438 2.14 3.674 1.512.286 1.766-.219 1.5-2.984-.218-2.269-.899-3.438-2.14-3.674-1.512-.286-1.766.219-1.5 2.984m-55.18 4.72c0 3.54.27 3.929 3.125 4.5 5.412 1.082 5.875.859 5.875-2.828 0-3.138-.342-3.548-3.75-4.494-5.273-1.465-5.25-1.477-5.25 2.822m48.177 5.24c.251 2.628.826 3.456 2.573 3.705 1.914.271 2.25-.139 2.25-2.75 0-1.689-.413-3.07-.918-3.07s-1.663-.286-2.574-.635c-1.372-.527-1.6-.057-1.331 2.75m6.823 1.768c0 2.014.586 3.037 1.942 3.392 2.402.628 3.058.02 3.058-2.835 0-2.021-1.684-3.44-4.082-3.44-.505 0-.918 1.298-.918 2.883M51 176.288c-1.874.943-2.577 2.186-2.809 4.967-.295 3.536-.09 3.814 4.425 5.977 2.604 1.247 4.918 2.83 5.143 3.517.607 1.862-2.669 2.724-5.824 1.532-1.955-.737-3.089-.727-3.853.037-1.609 1.609-1.347 2.24 1.465 3.521 5.01 2.283 10.379 1.036 12.485-2.9 1.713-3.199.13-5.98-4.59-8.068-4.965-2.196-6.158-3.555-4.541-5.172.826-.826 1.903-.834 4.031-.031 2.083.786 3.21.79 3.986.014 1.709-1.709 1.306-2.408-2.067-3.584-3.962-1.381-4.769-1.362-7.851.19m28-.594c-2.415.863-4 3.472-4 6.583 0 2.528.638 3.164 5.032 5.021 3.338 1.41 4.934 2.644 4.74 3.664-.369 1.943-4.417 2.577-6.327.992-1.13-.938-1.794-.909-3.048.131-1.451 1.205-1.393 1.5.611 3.123 4.185 3.388 12.516 1.538 13.663-3.034.786-3.13-.549-5.313-4.263-6.976-4.733-2.119-5.769-2.782-6.154-3.935-.562-1.686 3.41-2.513 5.835-1.215 1.703.911 2.348.87 3.023-.195 1.357-2.141 1.088-2.588-2.261-3.755-3.378-1.178-4.501-1.244-6.851-.404M66 186.57c0 10.389.038 10.564 2.25 10.25 2.144-.305 2.263-.802 2.535-10.57L71.07 176H66zM92 178c0 1.458.667 2 2.46 2 2.39 0 2.467.232 2.75 8.25.27 7.692.442 8.272 2.54 8.57 2.182.309 2.25.062 2.25-8.184v-8.503l2.741-.317c1.654-.19 2.874-1.011 3.074-2.066.294-1.55-.593-1.75-7.742-1.75-7.406 0-8.073.165-8.073 2m19 8.5V197h7c6.268 0 7-.204 7-1.945 0-1.611-.816-1.998-4.75-2.25-4.053-.26-4.797-.635-5.07-2.555-.292-2.056.081-2.25 4.324-2.25 3.881 0 4.588-.287 4.311-1.75-.242-1.277-1.48-1.833-4.574-2.057-3.427-.249-4.241-.681-4.241-2.25 0-1.665.716-1.943 5-1.943 4.333 0 5-.267 5-2 0-1.81-.667-2-7-2h-7zm18 0c0 9.752.139 10.5 1.954 10.5 1.717 0 1.991-.82 2.25-6.75l.296-6.75 2.194 4.75c1.226 2.655 2.871 4.75 3.731 4.75.845 0 2.649-2.137 4.009-4.75l2.473-4.75.046 6.82c.045 6.488.156 6.804 2.297 6.5 2.144-.305 2.263-.802 2.535-10.57l.285-10.25h-2.962c-2.631 0-3.258.642-5.618 5.75l-2.657 5.75-2.932-5.75c-2.382-4.67-3.4-5.75-5.417-5.75H129zm31.104-8.25c-3.052 8.108-6.104 17.012-6.104 17.81 0 1.878 4.188.936 4.71-1.06.421-1.61 1.364-2 4.839-2 3.438 0 4.445.407 4.951 2 .413 1.302 1.513 2 3.151 2 1.383 0 2.366-.357 2.182-.793-.183-.436-1.869-5.161-3.746-10.5-3.242-9.219-3.557-9.707-6.275-9.707-2.05 0-3.102.638-3.708 2.25M184 186.5V197h4.532c10.18 0 15.976-6.023 13.559-14.092-1.522-5.079-4.714-6.908-12.056-6.908H184zm22 0V197h7c6.333 0 7-.19 7-2 0-1.704-.667-2-4.5-2-4.133 0-4.5-.204-4.5-2.5 0-2.25.4-2.5 4-2.5 3.333 0 4-.333 4-2s-.667-2-4-2-4-.333-4-2c0-1.704.667-2 4.5-2s4.5-.296 4.5-2c0-1.81-.667-2-7-2h-7zm-17 0c0 6.267.09 6.5 2.5 6.5 3.121 0 6.5-3.263 6.5-6.277 0-3.678-2.744-6.723-6.057-6.723H189zm-26.677-1.544c-1.239 3.28-.87 4.044 1.952 4.044 1.616 0 1.828-.461 1.263-2.75-1.025-4.149-1.991-4.537-3.215-1.294m-10.573 15.121c-3.57 2.086-1.998 3.687 3.487 3.552 4.124-.102 5.308-.5 5.572-1.874.247-1.281-.281-1.71-1.987-1.614-1.277.071-2.997-.144-3.822-.479s-2.287-.148-3.25.415m-76.827 8.846c-4.101 4.101-4.147 10.675-.107 15.198 2.304 2.577 3.573 3.152 6.968 3.152 2.283 0 5.29-.747 6.683-1.66 2.086-1.366 2.533-2.449 2.533-6.136V215h-4.5c-3.833 0-4.5.296-4.5 2q0 2 2 2t2 2c0 1.605-.667 2-3.378 2-4.153 0-6.022-2.083-6.022-6.711 0-5.423 3.608-7.315 9.4-4.928.825.34 2.175.164 3-.392 2.457-1.654-2.338-4.969-7.188-4.969-3.05 0-4.641.675-6.889 2.923M95 216.5V227h7c6.333 0 7-.19 7-2 0-1.733-.667-2-5-2s-5-.267-5-2c0-1.704.667-2 4.5-2 3.789 0 4.5-.307 4.5-1.943 0-1.57-.814-2.001-4.25-2.25-3.481-.251-4.25-.669-4.25-2.307 0-1.677.768-2.049 4.75-2.305 3.934-.252 4.75-.639 4.75-2.25 0-1.741-.732-1.945-7-1.945h-7zm19-8.5c-1.1 1.1-2 2.9-2 4 0 2.236 3.311 6 5.277 6 .703 0 2.343.746 3.645 1.658 2.195 1.537 2.241 1.749.641 2.919-1.283.938-2.494.994-4.72.218-3.615-1.26-5.914.209-3.978 2.542 3.06 3.687 12.664 2.388 13.73-1.858 1.044-4.161.004-5.932-4.845-8.248-5.432-2.596-6.344-5.231-1.809-5.231 1.618 0 3.236.477 3.596 1.06.414.669 1.155.393 2.013-.75 1.162-1.549 1.121-1.99-.287-3.06-2.597-1.973-8.964-1.549-11.263.75m15 0c0 1.556.667 2 3 2h3v8.5c0 8.4.029 8.5 2.5 8.5s2.5-.1 2.5-8.5.029-8.5 2.5-8.5c1.833 0 2.5-.533 2.5-2 0-1.833-.667-2-8-2s-8 .167-8 2m20.078 7.25a1825 1825 0 0 1-3.817 10.5c-.301.792.437 1.25 2.015 1.25 1.65 0 2.667-.675 3.014-2 .418-1.598 1.364-2 4.71-2s4.292.402 4.71 2c.339 1.294 1.364 2 2.907 2 1.31 0 2.383-.191 2.383-.425s-1.628-4.959-3.619-10.5c-3.358-9.349-3.811-10.075-6.289-10.075-2.462 0-2.934.726-6.014 9.25m20.981-6.5c-5.97 5.524-4.309 15.526 2.973 17.903 4.606 1.503 8.318.724 11.444-2.401 2.018-2.018 2.524-3.516 2.524-7.465 0-4.128-.481-5.422-2.923-7.864-4.011-4.011-9.793-4.082-14.018-.173M173 212c-3.943 3.943-1.356 11 4.034 11 3.858 0 6.408-3.711 5.473-7.968-1.099-5.005-5.978-6.561-9.507-3.032m-18.972 2.426c-1.498 3.94-1.301 4.574 1.42 4.574 2.32 0 2.391-.17 1.352-3.25-1.478-4.379-1.59-4.433-2.772-1.324M187 233c-.83 1.551-.76 2 .31 2 .759 0 2.195-.9 3.19-2 1.756-1.94 1.747-2-.31-2-1.166 0-2.601.9-3.19 2M15 246.5v9.5h4.032c6.341 0 10.56-2.234 11.903-6.303C33.442 242.1 29.197 237 20.365 237H15zm20 0v9.5h6c5.333 0 6-.222 6-2 0-1.667-.667-2-4-2s-4-.333-4-2c0-1.619.667-2 3.5-2 2.444 0 3.5-.452 3.5-1.5s-1.056-1.5-3.5-1.5c-2.833 0-3.5-.381-3.5-2 0-1.667.667-2 4-2s4-.333 4-2c0-1.778-.667-2-6-2h-6zm24.913-8.218c-4.755 3.651-5.218 10.567-.99 14.795 3.447 3.447 8.611 3.931 12.069 1.131 2.03-1.644 2.077-1.906.568-3.158-1.246-1.034-1.926-1.084-2.802-.208-3.624 3.624-9.768-1.311-8.051-6.464 1.142-3.424 4.266-4.623 7.575-2.907 3.4 1.764 5.441-.014 3.049-2.657-1.913-2.114-8.931-2.441-11.418-.532m17.542 1.173C71.922 244.987 76.272 256 83.989 256c4.445 0 6.959-1.632 8.613-5.589 1.677-4.014 1.003-7.955-1.908-11.161-2.953-3.253-9.89-3.145-13.239.205M97 246.5c0 8.752.153 9.5 1.95 9.5 1.669 0 1.993-.818 2.25-5.676l.3-5.676 3.802 5.739c5.599 8.452 7.12 7.609 7.486-4.148l.287-9.239h-2.661c-2.615 0-2.654.097-2.206 5.5.251 3.025.312 5.5.134 5.5-.177 0-1.965-2.475-3.973-5.5-2.247-3.384-4.367-5.5-5.511-5.5-1.68 0-1.858.908-1.858 9.5m20 .124v9.624l5.669-.47c7.091-.588 10.331-3.687 10.331-9.879 0-6.073-3.321-8.899-10.455-8.899H117zm21.455-7.169c-7.452 7.451 2.299 20.493 11.6 15.515 5.148-2.754 6.079-11.07 1.755-15.672-3.096-3.296-9.984-3.215-13.355.157M158 246.5c0 8.833.14 9.5 2 9.5 1.761 0 2.007-.687 2.062-5.75l.062-5.75 2.135 4.25c1.174 2.338 2.729 4.25 3.454 4.25s2.1-1.649 3.053-3.664l1.734-3.664.5 4.914c.415 4.081.839 4.914 2.5 4.914 1.835 0 2.024-.763 2.288-9.25l.287-9.25h-2.601c-2.161 0-2.972.844-4.788 4.976-1.202 2.737-2.447 4.987-2.765 5S166.288 244.75 165 242c-1.826-3.898-2.855-5-4.671-5-2.275 0-2.329.219-2.329 9.5m25.212-.25c.272 8.73.414 9.268 2.538 9.57 2.199.312 2.25.102 2.25-9.25V237h-5.075zm10.788.25c0 8.752.153 9.5 1.95 9.5 1.669 0 1.993-.818 2.25-5.676l.3-5.676 3.76 5.676c2.478 3.74 4.439 5.676 5.75 5.676 1.847 0 1.99-.683 1.99-9.5 0-8.752-.153-9.5-1.95-9.5-1.669 0-1.993.818-2.25 5.676l-.3 5.676-3.76-5.676c-2.478-3.74-4.439-5.676-5.75-5.676-1.847 0-1.99.683-1.99 9.5m20.212-.25c.264 8.487.453 9.25 2.288 9.25s2.024-.763 2.288-9.25l.287-9.25h-5.15zm12.017-8.581c-1.936.779-4.229 5.854-4.229 9.358 0 2.123.939 4.066 2.923 6.05 3.762 3.762 8.759 3.961 12.771.51 2.302-1.981 2.806-3.223 2.806-6.92 0-6.223-3.234-9.698-8.924-9.588-2.242.043-4.648.309-5.347.59m-206.671 3.106c-.307.307-.558 2.958-.558 5.892 0 5.174.083 5.333 2.8 5.333 1.54 0 3.34-.54 4-1.2 1.576-1.576 1.543-7.287-.05-8.533-1.632-1.277-5.48-2.204-6.192-1.492M81 242c-3.755 3.755-1.649 10 3.371 10 3.112 0 4.629-1.849 4.629-5.643 0-2.218-.703-3.736-2.223-4.8-2.86-2.004-3.369-1.965-5.777.443m61 0c-3.755 3.755-1.649 10 3.371 10 3.09 0 4.629-1.844 4.629-5.545 0-3.104-2.506-6.455-4.829-6.455-.644 0-2.071.9-3.171 2m86 0c-2.403 2.403-2.538 4.786-.443 7.777 1.787 2.553 5.617 2.923 7.446.72 1.791-2.159 1.536-6.244-.533-8.53-2.258-2.495-3.951-2.486-6.47.033m-107 4.5c0 5.103.169 5.5 2.345 5.5 2.684 0 5.655-2.834 5.655-5.394 0-3.399-1.982-5.606-5.035-5.606-2.927 0-2.965.07-2.965 5.5"/><path fill="#1976D2" fill-opacity=".451" fill-rule="evenodd" d="M110.75 26.728 98 34.352v13.661l-9.5 4.719-9.5 4.719v78.283l3.8 2.515c4.428 2.93 12.72 7.188 15.941 8.186l2.24.694.26-49.008.259-49.009 8.5 3.772 8.5 3.772.26 47.172.26 47.172H124V86.917c0-35.246.373-63.934.828-63.75.456.183 4.956 2.794 10 5.802L144 34.438v56.781c0 39.522.324 56.781 1.066 56.781.586 0 1.923-.459 2.971-1.02 1.844-.986 1.886-2.384 1.279-42.5-.492-32.624-.362-41.48.611-41.48.68 0 4.74 1.898 9.021 4.218l7.784 4.219.634 8.935c.349 4.914.634 19.496.634 32.404 0 20.748.174 23.325 1.5 22.224 1.276-1.059 1.5-5.996 1.5-33.03V70.185l-10.25-5.342c-5.637-2.939-10.812-5.488-11.5-5.666-.918-.238-1.25-3.728-1.25-13.148V33.205l-12.034-7.103c-6.618-3.906-12.131-7.078-12.25-7.05s-5.953 3.483-12.966 7.676M49.571 177.571c-3.513 3.514-1.38 7.79 5.179 10.386 4.536 1.795 4.504 5.043-.05 5.043-1.815 0-3.769-.469-4.342-1.042-.724-.724-1.401-.611-2.213.367-1.758 2.118 1.067 3.966 6.24 4.08 5.403.119 7.615-1.648 7.615-6.083 0-3.18-.372-3.587-5.044-5.529-3.466-1.44-4.949-2.597-4.74-3.695.378-1.986 4.4-2.662 6.327-1.062 1.133.94 1.559.861 2.034-.375.33-.861.309-2.037-.047-2.613-1.022-1.653-9.172-1.263-10.959.523M66 186c0 9.333.133 10 2 10s2-.667 2-10-.133-10-2-10-2 .667-2 10m10.575-8.082c-2.947 3.256-1.645 6.289 3.925 9.148 2.75 1.412 5 3.212 5 4 0 1.783-4.703 2.431-7.351 1.014-1.513-.81-2.083-.694-2.549.52-.855 2.227-.93 2.136 2.799 3.367 4.277 1.411 8.285.446 10.185-2.455 2.324-3.546.465-6.84-5.048-8.945-3.266-1.248-4.55-2.262-4.329-3.42.375-1.968 4.367-2.746 6.215-1.211.972.806 1.655.677 2.631-.5 1.097-1.322 1.078-1.741-.117-2.497-2.644-1.673-9.496-1.083-11.361.979M92 177.434c0 .82 1.176 1.568 2.75 1.75 2.725.313 2.753.391 3.04 8.566.262 7.428.486 8.25 2.25 8.25 1.793 0 1.96-.725 1.96-8.5 0-8.4.029-8.5 2.5-8.5 1.556 0 2.5-.567 2.5-1.5 0-1.2-1.5-1.5-7.5-1.5-5.846 0-7.5.316-7.5 1.434M111 186v10h7c5.556 0 7-.31 7-1.5 0-1.133-1.222-1.5-5-1.5-4.667 0-5-.167-5-2.5 0-2.25.4-2.5 4-2.5 3.143 0 4-.375 4.001-1.75 0-1.356-.845-1.75-3.75-1.75-3.349 0-3.785-.295-4.067-2.75-.308-2.669-.172-2.75 4.583-2.75 3.689 0 4.9-.371 4.9-1.5 0-1.187-1.426-1.5-6.834-1.5H111zm18 0c0 9.333.133 10 2 10 1.796 0 2.006-.687 2.061-6.75l.061-6.75 2.646 5.25c1.455 2.887 3.253 5.25 3.995 5.25s2.337-2.137 3.543-4.75l2.194-4.75.298 6.25c.258 5.431.553 6.25 2.25 6.25 1.806 0 1.952-.748 1.952-10 0-9.861-.033-10-2.376-10-1.925 0-2.828 1.043-4.75 5.483-1.306 3.016-2.736 5.491-3.179 5.5s-1.9-2.458-3.237-5.483c-2.018-4.562-2.861-5.5-4.945-5.5H129zm28.745-.303c-3.036 8.439-3.303 9.854-1.918 10.168.884.201 2.24-.586 3.012-1.75 1.951-2.937 8.74-3.018 9.661-.115.584 1.84 4.568 2.96 4.447 1.25-.03-.412-1.514-4.8-3.3-9.75-2.847-7.897-3.559-9.037-5.81-9.303-2.403-.284-2.788.315-6.092 9.5M184 186v10h6.364c5.542 0 6.704-.34 9-2.636 3.861-3.862 3.731-10.423-.287-14.441-2.589-2.589-3.617-2.923-9-2.923H184zm22 0v10h7c5.438 0 7-.323 7-1.445 0-1.015-1.415-1.536-4.75-1.75-4.053-.26-4.797-.635-5.07-2.555-.291-2.052.084-2.25 4.25-2.25 3.315 0 4.57-.396 4.57-1.443 0-.982-1.356-1.54-4.25-1.75-3.785-.273-4.25-.581-4.25-2.807 0-2.273.431-2.528 4.75-2.805 3.335-.214 4.75-.735 4.75-1.75 0-1.122-1.562-1.445-7-1.445h-7zm-17.588-5.631c-.289.753-.388 3.791-.219 6.75.271 4.751.577 5.419 2.615 5.708 1.269.18 3.407-.393 4.75-1.273 5.012-3.284 1.993-12.554-4.089-12.554-1.393 0-2.768.616-3.057 1.369m-26.211 3.953c-1.63 4.506-1.577 4.678 1.424 4.678 2.423 0 2.575-.248 1.981-3.219-.946-4.732-2.051-5.205-3.405-1.459m-11.617 17.318c-.321.838-.584 1.655-.584 1.815 0 .649 8.589-.033 9.75-.774 2.408-1.539 1.208-2.341-3.666-2.452-3.555-.081-5.077.31-5.5 1.411m-73.696 5.86c-3.407 1.851-5.302 6.544-4.55 11.267 1.683 10.567 17.763 11.374 18.058.905.102-3.596.026-3.673-3.646-3.673-2.666.001-3.75.434-3.75 1.501 0 .833.889 1.5 2 1.5 2.845 0 2.49 2.82-.529 4.195-2.121.967-2.967.826-5.25-.87-3.25-2.416-3.983-6.513-1.771-9.89 1.747-2.665 6.257-3.328 8.357-1.228.943.943 1.561.853 2.824-.41 1.49-1.489 1.375-1.743-1.457-3.207-3.749-1.939-6.835-1.966-10.286-.09m18.112 9V227h7c5.999 0 7-.25 7.002-1.75.001-1.421-.891-1.75-4.75-1.75-4.441 0-4.773-.18-5.068-2.75-.3-2.601-.097-2.75 3.75-2.75 2.948 0 4.066-.413 4.066-1.5 0-1.083-1.111-1.5-4-1.5-3.6 0-4-.25-4-2.5 0-2.333.333-2.5 5-2.5 4.333 0 5-.267 5-2 0-1.81-.667-2-7-2h-7zm20.166-8.904c-1.707 1.196-2.202 2.386-1.972 4.75.258 2.663 1.045 3.507 5.056 5.423 2.612 1.248 4.75 2.927 4.75 3.731 0 2.013-4.335 2.926-7.034 1.482-1.768-.946-2.395-.913-3.075.165-2.164 3.429 7.581 5.312 11.886 2.296 2.557-1.79 2.915-5.608.732-7.791-.82-.82-3.07-2.012-5-2.649-2.32-.766-3.509-1.781-3.509-2.997 0-2.311 1.798-2.979 4.913-1.825 3.368 1.247 5.317-.777 2.646-2.748-2.558-1.888-6.564-1.818-9.393.163M130 208c0 1.467.667 2 2.5 2 2.471 0 2.5.1 2.5 8.5 0 7.833.157 8.5 2 8.5s2-.667 2-8.5V210h3c2.333 0 3-.444 3-2 0-1.822-.667-2-7.5-2s-7.5.178-7.5 2m21.842.875c-.558 1.444-2.294 6.113-3.858 10.375-2.756 7.51-2.782 7.75-.821 7.75 1.183 0 2.242-.831 2.547-2 .431-1.647 1.364-2 5.29-2s4.859.353 5.29 2c.311 1.19 1.364 2 2.598 2 2.004 0 1.955-.335-1.406-9.619-1.915-5.291-3.482-9.738-3.482-9.884 0-.145-1.158-.485-2.572-.756-2.077-.397-2.768.014-3.586 2.134m20.515-1.883c-3.337 1.346-5.357 5.045-5.357 9.807 0 6.059 4.06 10.201 10 10.201 7.893 0 12.322-7.81 8.805-15.528-2.064-4.531-8.231-6.586-13.448-4.48m.298 4.837c-3.285 3.63-1.608 10.244 2.938 11.588 3.007.888 7.407-2.834 7.407-6.267 0-6.19-6.523-9.545-10.345-5.321m-19.394 3.671c-1.056 3.444-1.027 3.5 1.833 3.5 3.346 0 3.234.238 1.808-3.851-1.416-4.062-2.313-3.976-3.641.351m33.971 17.5c-1.595 2.554-.138 2.57 2.907.033 2.23-1.857 2.249-1.968.352-2-1.106-.018-2.572.867-3.259 1.967M15 246v9h5.826c4.796 0 6.209-.409 8-2.314 2.161-2.301 2.903-7.623 1.553-11.141-.963-2.508-5.816-4.545-10.829-4.545H15zm20 0v9h6c4.667 0 6-.333 6-1.5 0-1.083-1.111-1.5-4-1.5-3.333 0-4-.333-4-2 0-1.619.667-2 3.5-2 2.444 0 3.5-.452 3.5-1.5s-1.056-1.5-3.5-1.5c-3.067 0-3.5-.31-3.5-2.5 0-2.25.4-2.5 4-2.5 2.889 0 4-.417 4-1.5 0-1.167-1.333-1.5-6-1.5h-6zm24.747-7.016c-4.979 3.917-4.254 12.668 1.287 15.533 3.634 1.88 5.327 1.865 9.086-.079 2.368-1.224 2.779-1.855 1.9-2.914-.93-1.12-1.554-1.128-3.635-.049-3.231 1.676-6.276.858-7.597-2.04-2.406-5.282 2.814-11.414 7.321-8.599 1.236.772 2.547.896 3.548.336 1.374-.769 1.272-1.108-.758-2.53-3.169-2.22-8.086-2.069-11.152.342m18.051 1.064c-2.681 2.681-2.982 3.542-2.499 7.147.737 5.491 3.636 8.26 8.65 8.26 5.696 0 9.051-3.401 9.051-9.175 0-8.894-8.894-12.54-15.202-6.232M97 246c0 7.904.213 9 1.75 9.001 1.477.001 1.721-.857 1.567-5.5-.101-3.025.124-5.499.5-5.496s2.258 2.476 4.183 5.495c2.052 3.219 4.224 5.492 5.25 5.495 1.537.004 1.75-1.088 1.75-8.995 0-7.333-.278-9-1.5-9-1.152 0-1.5 1.278-1.5 5.5 0 3.025-.338 5.498-.75 5.495s-2.325-2.476-4.25-5.495c-2.052-3.219-4.224-5.492-5.25-5.495-1.537-.004-1.75 1.088-1.75 8.995m20-.124V255h5.389c6.803 0 9.535-2.014 10.281-7.58.448-3.333.109-4.565-1.893-6.893-2.008-2.334-3.439-2.917-8.108-3.305l-5.669-.47zm21.798-5.828c-2.666 2.666-2.981 3.554-2.508 7.078.919 6.853 6.101 10.197 12.205 7.876 3.996-1.519 5.436-3.835 5.473-8.797.065-8.81-8.884-12.442-15.17-6.157M158 246c0 8.333.148 9 2 9 1.761 0 2.007-.687 2.062-5.75l.062-5.75 2.135 4.25c1.174 2.338 2.712 4.25 3.418 4.25.705 0 2.304-1.912 3.553-4.25l2.27-4.25.3 5.75c.22 4.219.686 5.75 1.75 5.75 1.159 0 1.45-1.804 1.45-9 0-7.985-.202-9-1.792-9-1.185 0-2.734 1.923-4.575 5.676l-2.784 5.676-2.568-5.676c-2.068-4.569-3.028-5.676-4.925-5.676-2.3 0-2.356.213-2.356 9m26 0c0 7.333.278 9 1.5 9s1.5-1.667 1.5-9-.278-9-1.5-9-1.5 1.667-1.5 9m10 0c0 8.333.148 9 2 9 1.767 0 2.001-.67 2.011-5.75l.012-5.75 3.738 5.737c2.71 4.157 4.358 5.74 5.989 5.75 2.168.013 2.25-.316 2.25-8.987 0-8.333-.148-9-2-9-1.786 0-2.001.67-2.009 6.25l-.009 6.25-4.12-6.25c-2.618-3.971-4.803-6.25-5.991-6.25-1.689 0-1.871.874-1.871 9m21 0c0 7.333.278 9 1.5 9s1.5-1.667 1.5-9-.278-9-1.5-9-1.5 1.667-1.5 9m10.712-6.988c-3.362 2.645-4.216 6.845-2.317 11.391 4.39 10.507 20.173 3.908 16.593-6.938-2.09-6.333-9.105-8.521-14.276-4.453M19 246c0 5.99.005 6 2.977 6 3.765 0 6.412-3.602 5.454-7.42-.718-2.859-3.11-4.58-6.365-4.58-1.858 0-2.066.603-2.066 6m61.655-4.171c-4.13 4.563.176 12.937 5.255 10.219 5.886-3.15 4.269-12.048-2.189-12.048-.776 0-2.156.823-3.066 1.829M121 246c0 5.984.008 6 2.965 6 3.245 0 5.035-2.232 5.035-6.279 0-2.915-2.859-5.721-5.829-5.721-1.987 0-2.171.509-2.171 6m20.655-4.171c-2.564 2.833-2.133 7.811.845 9.763 2.31 1.514 2.688 1.515 4.984.01 3.304-2.165 4.177-5.944 2.103-9.109-1.943-2.965-5.574-3.269-7.932-.664m86 0c-2.245 2.48-2.085 6.741.345 9.171 2.5 2.5 3.103 2.493 6.365-.073 2.982-2.345 3.365-5.439 1.078-8.704-1.888-2.696-5.538-2.881-7.788-.394"/></svg>